<svg t="1772437223465" class="icon" viewBox="0 0 1024 1024" version="1.1" xmlns="http://www.w3.org/2000/svg" p-id="11621" width="200" height="200"><path d="M384.075799 75.088596c13.264862-4.500578 39.794587-8.764284 30.793431-30.793431C348.78179-39.794587 238.399186 30.79343 150.045728 0 136.780865 22.029146 93.196317 22.029146 110.488013 57.323155c75.088596 71.061763 180.970622 4.500578 273.587786 17.765441zM997.575684 529.647004c0-61.823734-88.353458-71.061763-110.382605-127.911172 4.500578-101.618321-48.558871-264.823502 71.061763-326.647236 4.500578-13.264862-8.764284-22.029146-17.765441-30.793431-127.911173-30.79343-260.559796 13.264862-388.470969 0-8.764284 13.02799-22.266019 35.057136-8.764284 52.822577l57.323155 4.500579c26.529725 22.029146 13.264862 66.087439 13.264862 97.117742-26.529725 88.353458 30.79343 207.500347-39.794587 273.587786-101.618321 145.676613-22.029146 339.912098 57.323155 472.323849 66.087439 30.79343 167.70576 53.059449 234.030072 4.500579 132.411751-97.117742 145.676613-264.823502 132.411751-419.2644zM701.958751 101.618321c44.058293 0 97.117742-4.500578 127.911173 26.529724a71.061763 71.061763 0 0 1-17.528568 53.05945c-44.058293-4.500578-110.382605 39.794587-132.411752-22.029147 0-22.029146-13.264862-57.323155 22.029147-57.323155zM798.839621 307.934305c-39.794587-4.500578-83.85288 13.264862-105.882027-17.528568-8.764284-22.029146 13.264862-44.295165 30.793431-53.05945a197.5517 197.5517 0 0 1 88.353458 17.528568 54.95443 54.95443 0 0 1-13.264862 53.05945z m-92.617164 582.706454c-30.79343 8.764284-66.324312-31.030303-79.589175-57.323155-8.764284-30.79343-26.529725-71.061763 0-97.117743 22.029146-13.264862 83.85288-44.058293 92.854037 4.500579-17.765441 53.059449 0 97.117742-13.264862 150.177191z m-13.264863-256.059218C661.690419 639.555864 626.870155 639.555864 614.31591 608.999306c-8.764284-35.294009 8.764284-61.823734 17.528568-88.353458 26.529725-8.764284 75.088596-35.294009 88.353459 4.500578 4.500578 39.794587 13.264862 92.617164-26.529725 110.382605z m-13.264862-212.000926a19.660421 19.660421 0 0 1-8.764284-26.529724c26.529725-48.558871 101.618321-30.79343 142.123525-22.029147 13.264862 88.353458-88.353458 35.294009-132.411751 48.558871z m132.411751 454.558409a179.549387 179.549387 0 0 1-13.264862-136.91233c17.765441-39.794587 71.061763-30.79343 110.382604-26.529724 0 61.823734-35.294009 136.912329-97.117742 163.205181z m92.617164-251.55864c-53.059449-22.029146-142.123525 26.529725-118.436271-71.061763a79.826047 79.826047 0 0 1 44.058293-61.823733c44.295165-13.264862 66.087439 22.029146 83.85288 52.822577 4.500578 22.029146 17.765441 61.823734-8.764284 79.589174zM463.428101 225.028915l-44.058293-22.029146c-118.436271-13.264862-233.793199 0-361.941245 8.764284C22.134555 207.500347 22.134555 247.058062 22.134555 269.32408c52.822577 57.323155 118.436271-13.264862 176.470044 22.029147 47.374508 242.794356-8.764284 485.588712 26.529724 732.646773h17.765441c17.765441 0 22.029146-22.029146 35.294009-30.79343V307.934305c39.794587-101.618321 172.206338 22.029146 185.4712-83.85288z" fill="#B61D22" p-id="11622"></path><path d="M441.398954 534.147583c-31.030303-53.059449 4.500578-136.912329-39.794587-185.471201-17.765441 0-39.794587-22.029146-44.058293 8.764284 8.764284 150.177192 22.029146 300.117511 30.793431 450.05783 17.765441 39.794587 4.500578 114.883183 53.059449 123.647467 26.529725 4.500578 30.79343-22.029146 26.529725-44.058292-39.794587-110.382605-8.764284-229.529493-26.529725-353.176961zM74.957132 397.235253C66.192848 564.941013 57.428563 732.646773 44.163701 900.11566c8.764284 35.294009 39.794587 4.500578 57.323155 4.500579C140.570826 794.470507 136.780865 657.79505 150.045728 534.147583a270.982188 270.982188 0 0 1 0-118.436271c13.264862-44.058293-71.061763-75.088596-75.088596-17.528569z" fill="#B61D22" p-id="11623"></path></svg>